<svg width="68.042" height="42.456" viewBox="0 0 68.042 42.456" xmlns="http://www.w3.org/2000/svg"><g id="svgGroup" stroke-linecap="round" fill-rule="evenodd" font-size="9pt" stroke="#000" stroke-width="0.4mm" fill="#000" style="stroke:#000;stroke-width:0.4mm;fill:#000"><path d="M 0 0.489 L 1.88 0.489 L 16.504 34.107 L 31.177 0.489 L 33.105 0.489 L 33.105 36.036 L 31.787 36.036 L 31.787 2.442 L 17.041 36.036 L 15.991 36.036 L 1.318 2.613 L 1.318 36.036 L 0 36.036 L 0 0.489 Z M 68.042 15.601 L 68.042 20.923 A 21.641 21.641 0 0 1 67.587 25.462 A 16.77 16.77 0 0 1 66.101 29.663 Q 64.16 33.423 60.547 35.23 L 67.065 41.602 L 66.113 42.456 L 59.18 35.791 Q 56.982 36.524 54.663 36.524 A 13.679 13.679 0 0 1 49.886 35.721 A 11.984 11.984 0 0 1 44.946 32.251 A 14.478 14.478 0 0 1 41.896 26.316 Q 41.323 24.123 41.247 21.531 A 27.378 27.378 0 0 1 41.235 20.728 L 41.235 15.601 A 21.851 21.851 0 0 1 41.647 11.267 A 17.178 17.178 0 0 1 42.883 7.447 Q 44.531 3.882 47.595 1.941 A 12.568 12.568 0 0 1 53.579 0.035 A 15.435 15.435 0 0 1 54.614 0 A 13.858 13.858 0 0 1 58.802 0.615 A 12.125 12.125 0 0 1 61.658 1.941 A 12.402 12.402 0 0 1 65.945 6.59 A 15.212 15.212 0 0 1 66.382 7.459 A 17.72 17.72 0 0 1 67.846 12.579 A 22.569 22.569 0 0 1 68.042 15.601 Z M 66.724 20.728 L 66.724 15.552 A 20.683 20.683 0 0 0 66.301 11.249 Q 65.692 8.385 64.205 6.206 A 12.464 12.464 0 0 0 63.452 5.213 A 10.704 10.704 0 0 0 55.721 1.359 A 14.968 14.968 0 0 0 54.614 1.319 A 12.575 12.575 0 0 0 50.518 1.957 A 10.476 10.476 0 0 0 45.85 5.188 Q 42.879 8.702 42.606 14.52 A 25.636 25.636 0 0 0 42.578 15.723 L 42.578 20.923 A 20.809 20.809 0 0 0 42.925 24.807 A 15.952 15.952 0 0 0 44.055 28.431 Q 45.532 31.69 48.267 33.448 A 11.063 11.063 0 0 0 53.051 35.115 A 14.057 14.057 0 0 0 54.663 35.205 A 12.852 12.852 0 0 0 58.658 34.613 A 10.363 10.363 0 0 0 63.477 31.324 Q 66.343 27.897 66.679 22.263 A 25.79 25.79 0 0 0 66.724 20.728 Z" vector-effect="non-scaling-stroke"/></g></svg>