<svg width="122.476" height="76.422" viewBox="0 0 122.476 76.422" xmlns="http://www.w3.org/2000/svg"><g id="svgGroup" stroke-linecap="round" fill-rule="evenodd" font-size="9pt" stroke="#000" stroke-width="0.8mm" fill="#000" style="stroke:#000;stroke-width:0.8mm;fill:#000"><path d="M 0 0.88 L 3.384 0.88 L 29.707 61.392 L 56.118 0.88 L 59.59 0.88 L 59.59 64.864 L 57.217 64.864 L 57.217 4.395 L 30.674 64.864 L 28.784 64.864 L 2.373 4.703 L 2.373 64.864 L 0 64.864 L 0 0.88 Z M 122.476 28.082 L 122.476 37.662 A 38.953 38.953 0 0 1 121.656 45.831 A 30.186 30.186 0 0 1 118.982 53.394 Q 115.488 60.162 108.984 63.414 L 120.718 74.884 L 119.004 76.422 L 106.523 64.425 Q 102.568 65.743 98.394 65.743 A 24.622 24.622 0 0 1 89.795 64.297 A 21.572 21.572 0 0 1 80.903 58.052 Q 74.598 50.793 74.245 38.756 A 49.281 49.281 0 0 1 74.224 37.31 L 74.224 28.082 A 39.332 39.332 0 0 1 74.965 20.281 A 30.921 30.921 0 0 1 77.19 13.404 A 24.016 24.016 0 0 1 81.576 6.852 A 21.587 21.587 0 0 1 85.671 3.494 A 22.623 22.623 0 0 1 96.443 0.062 A 27.783 27.783 0 0 1 98.306 0.001 Q 105.469 0.001 110.984 3.494 A 22.323 22.323 0 0 1 118.701 11.863 A 27.382 27.382 0 0 1 119.487 13.426 A 31.895 31.895 0 0 1 122.122 22.642 A 40.625 40.625 0 0 1 122.476 28.082 Z M 120.103 37.31 L 120.103 27.994 A 37.229 37.229 0 0 0 119.342 20.248 Q 118.246 15.094 115.569 11.171 A 22.436 22.436 0 0 0 114.214 9.383 A 19.267 19.267 0 0 0 100.298 2.446 A 26.943 26.943 0 0 0 98.306 2.374 A 22.635 22.635 0 0 0 90.932 3.523 A 18.856 18.856 0 0 0 82.529 9.339 Q 76.641 16.304 76.641 28.302 L 76.641 37.662 A 37.456 37.456 0 0 0 77.264 44.652 A 28.714 28.714 0 0 0 79.299 51.175 A 22.142 22.142 0 0 0 82.884 56.783 A 19.213 19.213 0 0 0 86.88 60.206 A 19.914 19.914 0 0 0 95.492 63.207 A 25.303 25.303 0 0 0 98.394 63.37 A 23.133 23.133 0 0 0 105.584 62.304 A 18.654 18.654 0 0 0 114.258 56.383 Q 119.418 50.214 120.022 40.073 A 46.423 46.423 0 0 0 120.103 37.31 Z" vector-effect="non-scaling-stroke"/></g></svg>